<svg width="34" height="34" viewBox="0 0 34 34" fill="none" xmlns="http://www.w3.org/2000/svg">
<g id="Frame 120">
<g id="Group 722">
<g id="Group 722_2">
<g id="Group 671">
<path id="Subtract" fill-rule="evenodd" clip-rule="evenodd" d="M4.21973 8.29029C4.21973 3.61597 7.69236 1.01953 11.7006 1.01953C13.8944 1.01953 15.9277 1.79732 17.3191 3.26788C18.1057 4.09931 17.6575 5.37105 16.6335 5.88249V5.88249C15.4834 6.45693 14.0798 5.69764 12.903 5.17997C12.5442 5.0221 12.1402 4.93826 11.7006 4.93826C9.93834 4.93826 8.74761 6.28572 8.74761 8.34792V8.34792C8.74761 9.2308 8.3328 10.0624 7.62751 10.5934L7.60194 10.6127C6.15892 11.6992 5.8699 13.7499 6.95641 15.1929C6.96289 15.2015 6.96942 15.2101 6.97597 15.2187C7.75225 16.2292 8.74761 17.2816 8.74761 18.5558V18.5558C8.74761 20.618 9.93835 21.7888 11.7006 21.7888C13.4628 21.7888 14.6535 20.618 14.6535 18.5558V14.5918C14.6535 13.8989 14.9791 13.2464 15.5326 12.8296V12.8296C16.0558 12.4356 16.4273 11.9149 16.6365 11.3424C16.7554 11.017 16.9635 10.7212 17.2735 10.5664V10.5664C18.0484 10.1794 18.9468 10.7947 18.866 11.657L18.5998 14.4977C18.5051 15.5081 18.5976 16.5274 18.8726 17.5043C19.0775 18.2322 19.2071 18.9892 19.1092 19.739C18.5924 23.6998 15.371 25.9034 11.7006 25.9034C7.69236 25.9034 4.21973 23.2756 4.21973 18.6013V8.29029Z" fill="url(#paint0_linear_601_8493)"/>
<g id="Group 644">
<path id="Subtract_2" fill-rule="evenodd" clip-rule="evenodd" d="M4.21875 8.28689C4.21875 7.03655 5.23235 6.02295 6.48269 6.02295C7.73303 6.02295 8.74663 7.03655 8.74663 8.28689L8.74663 18.4649C8.74663 20.5271 9.93737 21.6978 11.6996 21.6978C13.4613 21.6978 14.6519 20.5277 14.6526 18.4666L14.6526 18.4649L14.4154 15.8389L14.4154 15.8351L14.4154 15.7859C14.4289 12.3659 16.3846 9.92061 18.9633 8.93504C19.0094 8.91741 19.0573 8.90489 19.1061 8.89696C19.1555 8.88891 19.204 8.87591 19.2512 8.85882C20.1465 8.53411 21.1229 8.3671 22.1334 8.3671C22.9696 8.3671 23.7824 8.48146 24.5453 8.70489C25.8113 9.07569 25.9167 10.6491 24.9419 11.5379V11.5379C24.2228 12.1937 23.1067 12.1796 22.1334 12.1796V12.1796C20.8161 12.1796 19.413 12.9625 18.7886 14.2192C18.3528 15.0964 18.577 16.123 18.8171 17.0726L19.1676 18.4595C19.1761 18.4933 19.1804 18.528 19.1804 18.5629C19.167 22.0121 17.2675 24.3324 14.6563 25.3013C14.6545 25.302 14.6526 25.3007 14.6526 25.2987C14.6526 25.2968 14.6506 25.2955 14.6488 25.2961C13.7353 25.637 12.7353 25.8125 11.6996 25.8125C7.69139 25.8125 4.21875 23.1847 4.21875 18.5104L4.21875 8.28689Z" fill="url(#paint1_linear_601_8493)"/>
</g>
</g>
<path id="S" d="M29.9996 25.8814C29.9996 30.6488 26.3685 33.3434 21.6637 33.3434C18.984 33.3434 17.2864 33.0904 15.6096 31.7918C14.753 31.1284 14.7812 29.8708 15.5121 29.0711V29.0711C16.3465 28.1583 17.7539 28.2725 18.9085 28.7156C19.698 29.0185 20.5694 29.0597 21.7269 29.0597C24.316 29.0597 25.7054 27.9888 25.7054 26.0196C25.7054 25.156 25.4843 24.4305 25.0107 23.9469C24.5687 23.4978 24.0634 23.2559 23.0215 23.0832L20.306 22.6687C18.3799 22.3577 16.959 21.7014 15.9485 20.6304C14.875 19.4559 14.3382 17.8668 14.3382 15.794C14.3382 11.4066 17.3063 8.33203 22.1689 8.33203C24.47 8.33203 25.8741 8.57773 27.2348 9.54185C28.1142 10.1649 28.0935 11.4292 27.3619 12.2205V12.2205C26.5603 13.0876 25.227 12.9463 24.088 12.6349C23.4576 12.4626 22.8267 12.5121 22.0426 12.5121C19.706 12.5121 18.5693 13.9285 18.5693 15.6213C18.5693 16.2431 18.7588 16.8995 19.2324 17.3831C19.6744 17.8322 20.4007 18.2122 21.3164 18.3504L23.9687 18.7649C26.0211 19.0759 27.3157 19.6977 28.263 20.665C29.4629 21.9086 29.9996 23.705 29.9996 25.8814Z" fill="url(#paint2_linear_601_8493)"/>
<path id="Intersect" fill-rule="evenodd" clip-rule="evenodd" d="M18.8413 8.71537C16.1855 9.682 14.247 11.9885 14.2238 15.427L14.2238 18.7107C14.2238 18.7264 14.2238 18.742 14.2236 18.7576L14.2236 25.6484C16.8794 24.8171 18.818 22.7128 18.8411 18.8265L18.8411 15.5471C18.8411 15.5314 18.8411 15.5158 18.8413 15.5003L18.8413 13.5888L18.8413 8.71537Z" fill="url(#paint3_linear_601_8493)"/>
</g>
</g>
</g>
<defs>
<linearGradient id="paint0_linear_601_8493" x1="17.0763" y1="2.75109" x2="-3.50071" y2="17.9317" gradientUnits="userSpaceOnUse">
<stop offset="0.1429" stop-color="#1EDFDB"/>
<stop offset="0.3063" stop-color="#528FE7"/>
<stop offset="0.6204" stop-color="#8B27CC"/>
<stop offset="0.8625" stop-color="#662773"/>
<stop offset="1" stop-color="#662773"/>
</linearGradient>
<linearGradient id="paint1_linear_601_8493" x1="26.9265" y1="25.0172" x2="11.3363" y2="4.23435" gradientUnits="userSpaceOnUse">
<stop stop-color="#BCD7FB"/>
<stop offset="0.25" stop-color="#F1A292" stop-opacity="0.85"/>
<stop offset="0.5" stop-color="#7C27A7" stop-opacity="0.7"/>
<stop offset="0.75" stop-color="#8B27CC" stop-opacity="0.7"/>
<stop offset="1" stop-color="#7B23BD" stop-opacity="0.39"/>
</linearGradient>
<linearGradient id="paint2_linear_601_8493" x1="16.2218" y1="32.2269" x2="34.8099" y2="22.6149" gradientUnits="userSpaceOnUse">
<stop offset="0.06" stop-color="#BCD7FB"/>
<stop offset="0.315" stop-color="#F1A292"/>
<stop offset="0.62" stop-color="#7C27A7"/>
<stop offset="0.75" stop-color="#8B27CC"/>
<stop offset="1" stop-color="#7B23BD"/>
</linearGradient>
<linearGradient id="paint3_linear_601_8493" x1="16.677" y1="8.38593" x2="16.677" y2="26.0146" gradientUnits="userSpaceOnUse">
<stop stop-color="#F3E6E3" stop-opacity="0.07"/>
<stop offset="0.36" stop-color="#C8E6F5"/>
<stop offset="0.5" stop-color="#BDBEF0"/>
<stop offset="0.645" stop-color="#BFAFEA"/>
<stop offset="0.9847" stop-color="#CAB0E1" stop-opacity="0"/>
</linearGradient>
</defs>
</svg>
